<mxfile host="app.diagrams.net" agent="Mozilla/5.0 (Windows NT 10.0; Win64; x64) AppleWebKit/537.36 (KHTML, like Gecko) Chrome/126.0.0.0 Safari/537.36 OPR/112.0.0.0" version="24.7.8">
  <diagram name="Page-1" id="Dzt4LujBioYANS6v6Dud">
    <mxGraphModel dx="886" dy="521" grid="1" gridSize="10" guides="1" tooltips="1" connect="1" arrows="1" fold="1" page="1" pageScale="1" pageWidth="850" pageHeight="1100" math="0" shadow="0">
      <root>
        <mxCell id="0" />
        <mxCell id="1" parent="0" />
        <mxCell id="wkF7x5m3LSW5YrgF8Xub-2" value="&lt;div style=&quot;text-align: justify;&quot;&gt;&lt;font style=&quot;font-size: 25px;&quot;&gt;Attacker&amp;nbsp;&lt;/font&gt;&lt;/div&gt;" style="rounded=0;whiteSpace=wrap;html=1;labelPosition=center;verticalLabelPosition=top;align=center;verticalAlign=bottom;" vertex="1" parent="1">
          <mxGeometry x="150" y="200" width="210" height="280" as="geometry" />
        </mxCell>
        <mxCell id="wkF7x5m3LSW5YrgF8Xub-3" value="&lt;font style=&quot;font-size: 25px;&quot;&gt;Defender&lt;/font&gt;" style="rounded=0;whiteSpace=wrap;html=1;labelPosition=center;verticalLabelPosition=top;align=center;verticalAlign=bottom;" vertex="1" parent="1">
          <mxGeometry x="360" y="200" width="210" height="280" as="geometry" />
        </mxCell>
        <mxCell id="wkF7x5m3LSW5YrgF8Xub-9" style="edgeStyle=orthogonalEdgeStyle;rounded=0;orthogonalLoop=1;jettySize=auto;html=1;exitX=1;exitY=0.5;exitDx=0;exitDy=0;entryX=0;entryY=0.5;entryDx=0;entryDy=0;" edge="1" parent="1">
          <mxGeometry relative="1" as="geometry">
            <mxPoint x="297.5" y="330" as="sourcePoint" />
            <mxPoint x="468" y="330" as="targetPoint" />
          </mxGeometry>
        </mxCell>
        <mxCell id="wkF7x5m3LSW5YrgF8Xub-14" value="SYN" style="edgeLabel;html=1;align=center;verticalAlign=middle;resizable=0;points=[];" vertex="1" connectable="0" parent="wkF7x5m3LSW5YrgF8Xub-9">
          <mxGeometry x="0.2141" y="1" relative="1" as="geometry">
            <mxPoint as="offset" />
          </mxGeometry>
        </mxCell>
        <mxCell id="wkF7x5m3LSW5YrgF8Xub-4" value="VM1" style="rounded=1;whiteSpace=wrap;html=1;" vertex="1" parent="1">
          <mxGeometry x="212.5" y="310" width="85" height="60" as="geometry" />
        </mxCell>
        <mxCell id="wkF7x5m3LSW5YrgF8Xub-5" value="VM2" style="rounded=1;whiteSpace=wrap;html=1;" vertex="1" parent="1">
          <mxGeometry x="468" y="310" width="85" height="60" as="geometry" />
        </mxCell>
        <mxCell id="wkF7x5m3LSW5YrgF8Xub-6" value="VM3" style="rounded=1;whiteSpace=wrap;html=1;" vertex="1" parent="1">
          <mxGeometry x="383" y="400" width="85" height="60" as="geometry" />
        </mxCell>
        <mxCell id="wkF7x5m3LSW5YrgF8Xub-12" style="edgeStyle=orthogonalEdgeStyle;rounded=0;orthogonalLoop=1;jettySize=auto;html=1;exitX=0.5;exitY=0;exitDx=0;exitDy=0;entryX=-0.001;entryY=0.641;entryDx=0;entryDy=0;entryPerimeter=0;" edge="1" parent="1" source="wkF7x5m3LSW5YrgF8Xub-6" target="wkF7x5m3LSW5YrgF8Xub-5">
          <mxGeometry relative="1" as="geometry" />
        </mxCell>
        <mxCell id="wkF7x5m3LSW5YrgF8Xub-17" value="HTTP" style="edgeLabel;html=1;align=center;verticalAlign=middle;resizable=0;points=[];" vertex="1" connectable="0" parent="wkF7x5m3LSW5YrgF8Xub-12">
          <mxGeometry x="-0.4103" relative="1" as="geometry">
            <mxPoint as="offset" />
          </mxGeometry>
        </mxCell>
      </root>
    </mxGraphModel>
  </diagram>
</mxfile>
